# xmcd
#
# Track frame offsets:
#	150
#	21386
#	38877
#	58593
#	78731
#	97177
#	118982
#	144999
#	167029
#	194340
#	212489
#	232662
#	252746
#	276945
#	302549
#	326219
#
# Disc length: 4549 seconds
#
# Revision: 3592983140
# Processed by: cddbd v1.5.2PL0 Copyright (c) Steve Scherf et al.
# Submitted via: EZCDAudioConverter 8.0.2.1
#
DISCID=ed11c310
DTITLE=Various Artist - Valentine's Day. Vẫn hát Lời Tình Yêu
DYEAR=2003
DGENRE=World Pop
TTITLE0=Mỹ Tâm - Yêu mãi ngàn năm (To Love You More)
TTITLE1=Tuấn Hưng - Vườn tình nhân
TTITLE2=Đoan Trang - Tình ca muôn đời
TTITLE3=Lam Trường - Ru tình quên lãng
TTITLE4=Thanh Thảo - Trái tim không lời
TTITLE5=Quang Dũng - Mãi yêu người
TTITLE6=Trần Thu Hà - Biết em còn chút dỗi hồn
TTITLE7=Minh Quân - Dáng xưa
TTITLE8=Hồng Nhung - Tình yêu ở lại
TTITLE9=Nguyễn Phi Hùng - Cảm ơn tình yêu
TTITLE10=Đàm Vĩnh Hưng and Hồng Ngọc - Vùng trời bình yên
TTITLE11=Trần Tâm - Hãy đến với anh
TTITLE12=Thu Phương - Ngủ ngoan nhé ngày xưa
TTITLE13=Thanh Lam - Yêu nhau như mới hôm qua
TTITLE14=Mỹ Tâm - Mãi yêu
TTITLE15=Lâm Khánh Chi - Hãy giữ lấy tình yêu
EXTD=
EXTT0=
EXTT1=
EXTT2=
EXTT3=
EXTT4=
EXTT5=
EXTT6=
EXTT7=
EXTT8=
EXTT9=
EXTT10=
EXTT11=
EXTT12=
EXTT13=
EXTT14=
EXTT15=
PLAYORDER=
